<svg width="58" height="58" viewBox="0 0 58 58" fill="none" xmlns="http://www.w3.org/2000/svg">
<g clip-path="url(#clip0_9017_2141)" filter="url(#filter0_dd_9017_2141)">
<path fill-rule="evenodd" clip-rule="evenodd" d="M29.0216 49C42.2009 49 53 38.2009 53 25.0216C53 11.7985 42.2009 1 29.0216 1C15.7985 1 5 11.7985 5 25.0216C5 38.2009 15.7985 49 29.0216 49Z" fill="#3A5BA2"/>
<path fill-rule="evenodd" clip-rule="evenodd" d="M26.0012 16.0106C26.0012 12.6944 28.6801 10.0156 31.9954 10.0156H36.5021V16.0106H33.4835C32.6765 16.0106 31.9954 16.6909 31.9954 17.4987V20.5167H36.5021V26.5108H31.9954V40.0315H26.0012V26.5108H21.4951V20.5167H26.0012V16.0106Z" fill="white"/>
</g>
<defs>
<filter id="filter0_dd_9017_2141" x="-0.00195312" y="-0.00195312" width="58" height="58" filterUnits="userSpaceOnUse" color-interpolation-filters="sRGB">
<feFlood flood-opacity="0" result="BackgroundImageFix"/>
<feColorMatrix in="SourceAlpha" type="matrix" values="0 0 0 0 0 0 0 0 0 0 0 0 0 0 0 0 0 0 127 0" result="hardAlpha"/>
<feMorphology radius="1" operator="erode" in="SourceAlpha" result="effect1_dropShadow_9017_2141"/>
<feOffset dy="4"/>
<feGaussianBlur stdDeviation="3"/>
<feColorMatrix type="matrix" values="0 0 0 0 0 0 0 0 0 0 0 0 0 0 0 0 0 0 0.1 0"/>
<feBlend mode="normal" in2="BackgroundImageFix" result="effect1_dropShadow_9017_2141"/>
<feColorMatrix in="SourceAlpha" type="matrix" values="0 0 0 0 0 0 0 0 0 0 0 0 0 0 0 0 0 0 127 0" result="hardAlpha"/>
<feMorphology radius="2" operator="erode" in="SourceAlpha" result="effect2_dropShadow_9017_2141"/>
<feOffset dy="2"/>
<feGaussianBlur stdDeviation="2"/>
<feColorMatrix type="matrix" values="0 0 0 0 0 0 0 0 0 0 0 0 0 0 0 0 0 0 0.1 0"/>
<feBlend mode="normal" in2="effect1_dropShadow_9017_2141" result="effect2_dropShadow_9017_2141"/>
<feBlend mode="normal" in="SourceGraphic" in2="effect2_dropShadow_9017_2141" result="shape"/>
</filter>
<clipPath id="clip0_9017_2141">
<rect width="48" height="48" fill="white" transform="translate(4.99805 0.998047)"/>
</clipPath>
</defs>
</svg>
