<svg width="58" height="58" viewBox="0 0 58 58" fill="none" xmlns="http://www.w3.org/2000/svg">
<g clip-path="url(#clip0_9017_2132)" filter="url(#filter0_dd_9017_2132)">
<path d="M28.999 48.998C42.2539 48.998 52.999 38.2529 52.999 24.998C52.999 11.7432 42.2539 0.998047 28.999 0.998047C15.7442 0.998047 4.99902 11.7432 4.99902 24.998C4.99902 38.2529 15.7442 48.998 28.999 48.998Z" fill="url(#paint0_linear_9017_2132)"/>
<path d="M35.8794 19.6475C36.7373 19.6475 37.4327 18.9521 37.4327 18.0943C37.4327 17.2364 36.7373 16.541 35.8794 16.541C35.0216 16.541 34.3262 17.2364 34.3262 18.0943C34.3262 18.9521 35.0216 19.6475 35.8794 19.6475Z" fill="white"/>
<path d="M28.9978 30.6929C32.141 30.6929 34.689 28.1449 34.689 25.0017C34.689 21.8586 32.141 19.3105 28.9978 19.3105C25.8547 19.3105 23.3066 21.8586 23.3066 25.0017C23.3066 28.1449 25.8547 30.6929 28.9978 30.6929Z" stroke="white" stroke-width="2.10938" stroke-miterlimit="10"/>
<path d="M16.9668 29.7154C16.9668 33.9869 20.4296 37.4497 24.7012 37.4497H33.2926C37.5641 37.4497 41.0269 33.9869 41.0269 29.7154V20.293C41.0269 16.0214 37.5641 12.5586 33.2926 12.5586H24.7012C20.4296 12.5586 16.9668 16.0214 16.9668 20.293V29.7154Z" stroke="white" stroke-width="2.10938" stroke-miterlimit="10"/>
</g>
<defs>
<filter id="filter0_dd_9017_2132" x="0" y="0" width="58" height="58" filterUnits="userSpaceOnUse" color-interpolation-filters="sRGB">
<feFlood flood-opacity="0" result="BackgroundImageFix"/>
<feColorMatrix in="SourceAlpha" type="matrix" values="0 0 0 0 0 0 0 0 0 0 0 0 0 0 0 0 0 0 127 0" result="hardAlpha"/>
<feMorphology radius="1" operator="erode" in="SourceAlpha" result="effect1_dropShadow_9017_2132"/>
<feOffset dy="4"/>
<feGaussianBlur stdDeviation="3"/>
<feColorMatrix type="matrix" values="0 0 0 0 0 0 0 0 0 0 0 0 0 0 0 0 0 0 0.1 0"/>
<feBlend mode="normal" in2="BackgroundImageFix" result="effect1_dropShadow_9017_2132"/>
<feColorMatrix in="SourceAlpha" type="matrix" values="0 0 0 0 0 0 0 0 0 0 0 0 0 0 0 0 0 0 127 0" result="hardAlpha"/>
<feMorphology radius="2" operator="erode" in="SourceAlpha" result="effect2_dropShadow_9017_2132"/>
<feOffset dy="2"/>
<feGaussianBlur stdDeviation="2"/>
<feColorMatrix type="matrix" values="0 0 0 0 0 0 0 0 0 0 0 0 0 0 0 0 0 0 0.1 0"/>
<feBlend mode="normal" in2="effect1_dropShadow_9017_2132" result="effect2_dropShadow_9017_2132"/>
<feBlend mode="normal" in="SourceGraphic" in2="effect2_dropShadow_9017_2132" result="shape"/>
</filter>
<linearGradient id="paint0_linear_9017_2132" x1="37.21" y1="47.5567" x2="20.7881" y2="2.43937" gradientUnits="userSpaceOnUse">
<stop stop-color="#20254C"/>
<stop offset="0.0571" stop-color="#29254D"/>
<stop offset="0.1502" stop-color="#41234F"/>
<stop offset="0.2679" stop-color="#692152"/>
<stop offset="0.4039" stop-color="#A01F57"/>
<stop offset="0.5333" stop-color="#DA1C5C"/>
<stop offset="0.5924" stop-color="#DC255A"/>
<stop offset="0.6889" stop-color="#E13D56"/>
<stop offset="0.8106" stop-color="#EA654E"/>
<stop offset="0.9515" stop-color="#F69C44"/>
<stop offset="1" stop-color="#FBB040"/>
</linearGradient>
<clipPath id="clip0_9017_2132">
<rect width="48" height="48" fill="white" transform="translate(5 1)"/>
</clipPath>
</defs>
</svg>
