<?xml version="1.0" encoding="UTF-8"?>
<svg version="1.1" xmlns="http://www.w3.org/2000/svg" width="987" height="495">
<path d="M0 0 C325.71 0 651.42 0 987 0 C987 163.35 987 326.7 987 495 C661.29 495 335.58 495 0 495 C0 331.65 0 168.3 0 0 Z " fill="#FEFEFE" transform="translate(0,0)"/>
<path d="M0 0 C9.86457682 6.71811697 15.15470066 15.39427355 18.83203125 26.73828125 C19.33200632 29.56781048 19.43803908 32.31446984 19.5 35.1875 C19.55607422 36.85619141 19.55607422 36.85619141 19.61328125 38.55859375 C19.05324089 48.88705568 14.31128905 58.12084847 9 66.75 C7.74311005 68.84742886 6.48661729 70.94509577 5.23046875 73.04296875 C4.24119385 74.67951416 4.24119385 74.67951416 3.23193359 76.34912109 C1.146198 79.81870515 -0.908349 83.30471404 -2.94921875 86.80078125 C-3.29577011 87.39442474 -3.64232147 87.98806824 -3.99937439 88.59970093 C-4.70570826 89.8100606 -5.41194041 91.02047964 -6.11807251 92.23095703 C-12.62475479 103.37455328 -19.19875386 114.47803817 -25.78588867 125.57421875 C-30.71783612 133.88781287 -35.61592631 142.22071869 -40.5 150.5625 C-47.06247582 161.76924071 -53.63558445 172.96938269 -60.26416016 184.13720703 C-61.88277253 186.86858352 -63.49397996 189.6042595 -65.10546875 192.33984375 C-66.17412852 194.14343698 -67.24312624 195.94683002 -68.3125 197.75 C-68.79307861 198.56927979 -69.27365723 199.38855957 -69.76879883 200.23266602 C-76.89222369 212.19445441 -85.69459786 219.34309929 -99.3515625 223.08984375 C-112.29468211 225.55867808 -123.11340841 223.69511733 -134.0625 216.5 C-141.38272944 211.40108157 -146.67611624 203.80021116 -152 196.75 C-152.83736694 195.64760986 -152.83736694 195.64760986 -153.69165039 194.52294922 C-155.40226137 192.26804196 -157.1080863 190.00959407 -158.8125 187.75 C-159.31974609 187.0787207 -159.82699219 186.40744141 -160.34960938 185.71582031 C-167.37414764 176.41317882 -174.30473099 167.04201588 -181.20703125 157.6484375 C-183.67390129 154.29219767 -186.15150839 150.9442431 -188.63671875 147.6015625 C-189.26271973 146.75762939 -189.8887207 145.91369629 -190.53369141 145.04418945 C-191.72242937 143.44202538 -192.91335482 141.84148095 -194.10693359 140.24291992 C-203.7599929 127.21143294 -208.53253007 116.26877931 -206.8125 99.75 C-203.60969038 87.78736919 -195.94489686 77.48981564 -185.21875 71.23828125 C-174.61501641 65.79607092 -163.57892667 65.119187 -152.0625 68.25 C-137.29944481 73.53664827 -129.76607024 84.5652072 -120.8125 96.75 C-119.67498375 98.27218511 -118.53575739 99.79309432 -117.39453125 101.3125 C-116.89800049 101.97378906 -116.40146973 102.63507813 -115.88989258 103.31640625 C-115.53435303 103.78949219 -115.17881348 104.26257813 -114.8125 104.75 C-114.50135254 104.20287354 -114.19020508 103.65574707 -113.86962891 103.09204102 C-105.75162152 88.82669115 -97.50085628 74.65026162 -89.125 60.53515625 C-88.11543723 58.83327265 -87.1058745 57.13138903 -86.09631348 55.42950439 C-85.06325287 53.6887686 -84.02920097 51.94862422 -82.99511719 50.20849609 C-79.61392766 44.51350475 -76.25744921 38.80652341 -72.953125 33.06640625 C-72.33920898 32.00236572 -71.72529297 30.9383252 -71.09277344 29.84204102 C-69.95005077 27.85732042 -68.81224174 25.86975801 -67.68066406 23.87866211 C-58.85548226 8.56493509 -50.17742534 -1.57780842 -32.8984375 -6.83203125 C-20.99138514 -9.21790129 -10.20661482 -6.08498046 0 0 Z " fill="#AA0422" transform="translate(273.8125,83.25)"/>
<path d="M0 0 C1.69578622 -0.00345854 3.39157019 -0.00822443 5.08734947 -0.01418173 C9.73800738 -0.0266945 14.38848038 -0.02052004 19.03913891 -0.01122308 C24.0583166 -0.00443404 29.07746254 -0.01491314 34.09663391 -0.02316284 C43.92583244 -0.03650418 53.75496225 -0.03362055 63.58416348 -0.02492492 C71.57303227 -0.01814999 79.5618818 -0.01723083 87.55075264 -0.02049637 C89.25623921 -0.02118592 89.25623921 -0.02118592 90.99618005 -0.0218894 C93.3059632 -0.02284857 95.61574635 -0.02382121 97.92552949 -0.02480717 C119.58585567 -0.03336234 141.24614376 -0.02352513 162.90646369 -0.00740607 C181.49023824 0.00599541 200.07395657 0.00367065 218.6577301 -0.01016235 C240.23896223 -0.02621903 261.82016097 -0.03253645 283.40139824 -0.02332556 C285.70299375 -0.02236992 288.00458925 -0.02142681 290.30618477 -0.02049637 C292.00481928 -0.01980213 292.00481928 -0.01980213 293.73776964 -0.01909386 C301.71612254 -0.01650411 309.69445426 -0.02087471 317.67280388 -0.02793503 C327.39714756 -0.03635126 337.1214186 -0.03406733 346.84575396 -0.0180928 C351.80684298 -0.01021151 356.7678109 -0.0071161 361.728899 -0.01704025 C366.27192374 -0.02599061 370.81471532 -0.02104859 375.35771895 -0.0051076 C376.99961868 -0.00176123 378.64153817 -0.00345062 380.28342514 -0.01073496 C391.51467254 -0.05673404 401.16883482 0.156277 409.69850159 8.31063843 C415.24396196 14.69997321 417.30679291 21.05717819 416.91725159 29.48641968 C415.87533628 36.63511636 412.55198368 42.32434384 407.49537659 47.38095093 C401.52980841 51.57297181 396.72352313 52.50493903 389.54432297 52.515172 C388.48998244 52.51870035 388.48998244 52.51870035 387.41434211 52.52229998 C385.04727484 52.52898339 382.68026255 52.52853195 380.31318665 52.52812195 C378.60364296 52.53142097 376.89410006 52.53514662 375.18455815 52.53926343 C370.47738615 52.54928696 365.7702269 52.55300078 361.06304574 52.55565274 C355.98997216 52.55955467 350.91690869 52.56913299 345.84384155 52.5778656 C333.58878526 52.59763173 321.33372814 52.60769578 309.07865989 52.61659339 C303.30972036 52.62097549 297.54078176 52.62634245 291.77184296 52.63158226 C272.59906581 52.64859364 253.42628924 52.6630888 234.25350571 52.670331 C229.27765146 52.67224094 224.30179722 52.67416127 219.32594299 52.67611694 C218.08919835 52.67660068 216.85245371 52.67708442 215.57823196 52.67758282 C195.53439696 52.68588686 175.49062156 52.71123051 155.4468126 52.74369762 C134.87590039 52.77674739 114.3050185 52.79477782 93.7340796 52.79797524 C82.18110346 52.80014212 70.62821427 52.80891691 59.07526398 52.83443642 C49.2384375 52.85611484 39.40171911 52.86420786 29.56487146 52.85446963 C24.54515757 52.84991684 19.52566682 52.8518681 14.50598335 52.87123108 C9.91037975 52.88880532 5.31516303 52.88791179 0.71955565 52.87233379 C-0.94264116 52.86994899 -2.60486436 52.87432628 -4.26702073 52.88616244 C-13.78449507 52.94973626 -21.17339656 52.9573138 -28.71165466 46.48641968 C-35.24846893 38.6772328 -37.16542153 33.14719138 -36.91477966 22.89266968 C-36.01719859 15.20766601 -32.49289086 9.572562 -26.64134216 4.63485718 C-18.07638777 -0.39137748 -9.63612973 -0.04268819 0 0 Z " fill="#AA0422" transform="translate(498.50462341308594,103.61904907226563)"/>
<path d="M0 0 C2.875 2.375 2.875 2.375 5 5 C5.73283203 5.82564453 5.73283203 5.82564453 6.48046875 6.66796875 C14.16274373 15.86773014 16.06857736 27.43778079 16.18945312 39.13085938 C16.20189308 40.14499153 16.20189308 40.14499153 16.21458435 41.17961121 C16.23187838 42.63852201 16.24707339 44.09745894 16.26036072 45.55641174 C16.28167693 47.89049786 16.30868698 50.224461 16.33703613 52.55847168 C16.39645894 57.53893075 16.44849 62.51945382 16.5 67.5 C16.56817837 74.01047523 16.63995548 80.52089405 16.71875 87.03125 C16.72813599 87.81636963 16.73752197 88.60148926 16.74719238 89.41040039 C16.90674777 102.29099278 17.34130446 115.13348037 18 128 C6.12 128 -5.76 128 -18 128 C-18.99 123.71 -19.98 119.42 -21 115 C-22.0725 116.03125 -23.145 117.0625 -24.25 118.125 C-35.04514714 127.54691287 -48.33106294 131.58521138 -62.4375 131.4375 C-63.95645874 131.42614014 -63.95645874 131.42614014 -65.50610352 131.41455078 C-76.3917467 131.17383847 -84.98255226 128.61217016 -93 121 C-101.45191916 111.90095014 -103.66925989 102.15850236 -103.5 90 C-103.51546875 88.88882813 -103.5309375 87.77765625 -103.546875 86.6328125 C-103.4984299 76.33822801 -101.07831841 68.33686551 -93.8984375 60.80859375 C-77.81344158 45.48482191 -53.15349282 43.65139147 -32 41 C-29.66619753 40.66996733 -27.33274805 40.33740495 -25 40 C-25.45788842 32.65045013 -25.45788842 32.65045013 -28.3984375 26.125 C-34.76216042 20.90985146 -41.09214301 21.51458467 -49 22 C-52.85405985 22.80504211 -55.2682079 24.14624255 -57.875 27.1875 C-59.43642115 30.74664245 -59.43642115 30.74664245 -60 38 C-72.87 38 -85.74 38 -99 38 C-99 25.64391757 -96.49993748 13.65902271 -87.875 4.25 C-65.75095158 -16.01448401 -24.47653032 -15.14460599 0 0 Z " fill="#020202" transform="translate(528,179)"/>
<path d="M0 0 C13.97143026 11.59331447 18.64033196 26.65043899 21.3203125 44.0703125 C21.3203125 53.6403125 21.3203125 63.2103125 21.3203125 73.0703125 C-6.7296875 73.0703125 -34.7796875 73.0703125 -63.6796875 73.0703125 C-60.971948 86.81414586 -60.971948 86.81414586 -51.6796875 96.0703125 C-44.32616354 98.99734369 -35.72557393 99.44559238 -28.1796875 96.8203125 C-20.63861923 93.04977836 -19.87376697 91.58785777 -16.6796875 83.0703125 C-4.1396875 83.0703125 8.4003125 83.0703125 21.3203125 83.0703125 C21.3203125 93.43458057 19.6415263 100.77371939 13.3203125 109.0703125 C12.5159375 110.276875 12.5159375 110.276875 11.6953125 111.5078125 C1.8447381 122.13606382 -13.49778981 128.02401144 -27.74804688 129.35742188 C-30.83578383 129.4703154 -33.90273698 129.48677193 -36.9921875 129.4453125 C-38.08088135 129.43661133 -39.1695752 129.42791016 -40.29125977 129.41894531 C-48.72857283 129.26602959 -56.54458427 128.44477156 -64.6796875 126.0703125 C-65.57171875 125.81507813 -66.46375 125.55984375 -67.3828125 125.296875 C-79.65349204 121.09088736 -90.05317322 111.6329973 -96.171875 100.30859375 C-102.29990236 87.30919844 -103.92882213 75.56149911 -104.02978516 61.31616211 C-104.0461964 59.63014785 -104.07328529 57.94419873 -104.11181641 56.25854492 C-104.56522901 36.23939271 -100.15720711 19.15080852 -86.3046875 4.1328125 C-63.33843117 -16.68363445 -24.99805949 -18.00151806 0 0 Z " fill="#010101" transform="translate(360.6796875,180.9296875)"/>
<path d="M0 0 C13.2 0 26.4 0 40 0 C40.02505615 3.00609375 40.0501123 6.0121875 40.07592773 9.109375 C40.15979719 19.09576963 40.24842902 29.08211804 40.33933926 39.06845093 C40.39425749 45.11690621 40.44762381 51.16536652 40.49731445 57.21386719 C40.54542166 63.06241588 40.59777391 68.91091321 40.65294075 74.75939941 C40.67315657 76.9790314 40.69190071 79.19867735 40.70907402 81.41833496 C40.81663872 95.93423801 40.81663872 95.93423801 41.51977539 110.4296875 C42.03837348 118.60492366 42 126.80833166 42 135 C30.12 135 18.24 135 6 135 C5.01 129.72 4.02 124.44 3 119 C2.030625 120.19625 1.06125 121.3925 0.0625 122.625 C-7.7820278 131.57885496 -18.21783963 136.66588769 -30 138 C-44.54770198 138.84867666 -57.59006621 138.36641973 -69.0078125 128.21484375 C-78.85972711 117.82981687 -81.33768621 104.51913594 -81.22705078 90.68505859 C-81.22734283 89.70824127 -81.22763489 88.73142395 -81.22793579 87.7250061 C-81.22655507 84.53272259 -81.21105366 81.34067967 -81.1953125 78.1484375 C-81.19157789 75.92070646 -81.18873304 73.69297376 -81.18673706 71.46524048 C-81.17913588 65.62916452 -81.15951783 59.79318962 -81.1373291 53.95715332 C-81.11679465 47.9909807 -81.10771915 42.0247916 -81.09765625 36.05859375 C-81.07626841 24.37234451 -81.04111517 12.68619651 -81 1 C-68.13 1 -55.26 1 -42 1 C-41.96261719 7.2596875 -41.92523437 13.519375 -41.88671875 19.96875 C-41.85643016 23.94273547 -41.82527644 27.91667664 -41.79101562 31.890625 C-41.73675984 38.19333627 -41.68564697 44.4959599 -41.65356445 50.79882812 C-41.62748764 55.88236687 -41.58705407 60.96561011 -41.53681374 66.04896545 C-41.52017465 67.98491226 -41.508642 69.92091014 -41.50238609 71.85691833 C-41.49271282 74.57614867 -41.46461518 77.29462802 -41.43237305 80.01367188 C-41.43380814 80.80777466 -41.43524323 81.60187744 -41.4367218 82.42004395 C-41.34095699 88.1594713 -40.59806717 94.12688613 -36.58372021 98.56621552 C-31.88737286 102.63260819 -27.89862845 103.41407618 -21.89453125 103.34375 C-14.39881912 102.45357096 -7.5438376 99.24354085 -2.28661728 93.83768845 C0.0944772 90.43674717 -0.16835146 86.90194823 -0.22705078 82.87353516 C-0.21642105 81.97533051 -0.20579132 81.07712585 -0.19483948 80.15170288 C-0.16684121 77.1969155 -0.18083374 74.24392124 -0.1953125 71.2890625 C-0.18405987 69.23495934 -0.17017814 67.18086905 -0.15377808 65.12680054 C-0.11774527 59.7311449 -0.11736598 54.33605596 -0.12445068 48.94030762 C-0.1255243 42.46068602 -0.08224696 35.98122668 -0.04641724 29.50172424 C0.00300422 19.66752235 -0.0038583 9.83480067 0 0 Z " fill="#010101" transform="translate(754,172)"/>
<path d="M0 0 C10.02439817 10.49064924 12.95453415 21.66667155 12.6875 35.8125 C7.15161467 35.83714775 1.615761 35.85533496 -3.92016602 35.86743164 C-5.8049373 35.87247244 -7.68970465 35.87930498 -9.57446289 35.88793945 C-12.27751636 35.90001617 -14.98051831 35.90573068 -17.68359375 35.91015625 C-18.95546791 35.91789818 -18.95546791 35.91789818 -20.2530365 35.92579651 C-22.27321068 35.92599195 -24.29327934 35.87456211 -26.3125 35.8125 C-27.82291966 34.30208034 -27.71709247 32.64876148 -28.0625 30.5625 C-29.01811866 26.01607181 -30.62606047 23.76165162 -34.3125 20.8125 C-37.41166296 19.26291852 -40.66321849 19.54568927 -44.0625 19.5 C-45.11824219 19.45649414 -45.11824219 19.45649414 -46.1953125 19.41210938 C-51.35386213 19.34978489 -54.22556677 20.41691925 -58.3125 23.8125 C-60.79636059 27.53829089 -60.6929212 29.39961402 -60.3125 33.8125 C-58.38255742 38.53013743 -55.89759414 39.84331064 -51.3125 41.8125 C-47.96186021 42.51157093 -47.96186021 42.51157093 -44.40234375 42.83984375 C-43.7535878 42.91489639 -43.10483185 42.98994904 -42.43641663 43.067276 C-39.69549082 43.38425326 -36.95203891 43.67554006 -34.20825195 43.96655273 C-19.28157002 45.57951909 -2.47345274 48.32327735 8.21875 59.84765625 C15.05955938 68.99905816 15.63372314 79.81877938 14.6875 90.8125 C12.42271804 102.82231517 6.8288857 112.80636134 -3.3125 119.8125 C-23.57625605 130.99250334 -49.25160024 131.99804711 -71.3125 125.8125 C-74.51747678 124.75046793 -77.38493485 123.4894548 -80.3125 121.8125 C-81.06917969 121.38066406 -81.82585938 120.94882812 -82.60546875 120.50390625 C-92.86797714 114.1607478 -98.69339575 105.84199935 -101.5625 94.1875 C-102.45007959 90.19339185 -102.3125 87.14612 -102.3125 82.8125 C-89.1125 82.8125 -75.9125 82.8125 -62.3125 82.8125 C-61.3225 85.7825 -60.3325 88.7525 -59.3125 91.8125 C-56.71012025 95.19559368 -54.30730123 96.45609901 -50.3125 97.8125 C-42.92370031 98.69998153 -35.51084891 98.31533643 -29.3125 93.8125 C-27.27732565 90.79527326 -27.06540974 88.34166724 -27.125 84.75 C-27.13144531 83.89277344 -27.13789062 83.03554688 -27.14453125 82.15234375 C-27.22659966 79.65772032 -27.22659966 79.65772032 -28.3125 76.8125 C-31.02388905 75.6572856 -31.02388905 75.6572856 -34.3125 74.8125 C-35.33214844 74.48121094 -36.35179687 74.14992188 -37.40234375 73.80859375 C-41.9573165 72.50605874 -46.54337175 72.2769493 -51.25 71.9375 C-68.09011279 70.49465068 -83.96519672 67.57830498 -95.65625 54.3515625 C-99.83127283 47.95117373 -100.79366931 41.9797532 -100.625 34.4375 C-100.61227051 33.59968994 -100.59954102 32.76187988 -100.58642578 31.89868164 C-100.2877434 19.19974349 -97.66188587 9.66296317 -88.25 0.5625 C-64.35334219 -19.21817828 -24.74480932 -16.34091182 0 0 Z " fill="#030303" transform="translate(898.3125,181.1875)"/>
<path d="M0 0 C13.2 0 26.4 0 40 0 C40 66.99 40 133.98 40 203 C26.8 203 13.6 203 0 203 C0 136.01 0 69.02 0 0 Z " fill="#010101" transform="translate(383,104)"/>
<path d="M0 0 C0 12.54 0 25.08 0 38 C-4.62 38.33 -9.24 38.66 -14 39 C-19.67698025 40.11125573 -19.67698025 40.11125573 -25 42 C-25.72696075 42.23935776 -26.45392151 42.47871552 -27.20291138 42.72532654 C-30.28378092 44.13136477 -31.89688704 45.3127854 -34 48 C-35.81144391 54.40656611 -35.18534795 61.46748169 -35.09765625 68.0546875 C-35.10331098 70.04152902 -35.11292399 72.02836288 -35.12632751 74.01516724 C-35.15092625 79.23370854 -35.12186176 84.45061663 -35.08154297 89.66900635 C-35.04431964 95.93576894 -35.07387751 102.20253084 -35.09221649 108.46932983 C-35.11258524 117.98053212 -35.04823639 127.48778443 -35 137 C-48.53 137 -62.06 137 -76 137 C-76.02505615 133.70032227 -76.0501123 130.40064453 -76.07592773 127.00097656 C-76.15960385 116.06859565 -76.24826287 105.13625917 -76.33933926 94.20393753 C-76.39437803 87.57917099 -76.44776632 80.95439991 -76.49731445 74.32958984 C-76.54524048 67.92993318 -76.59759115 61.53032629 -76.65294075 55.13072968 C-76.67323709 52.69566852 -76.69197005 50.26059379 -76.70907402 47.82550812 C-76.73340218 44.4008751 -76.7634144 40.97633362 -76.79467773 37.55175781 C-76.80331093 36.05957481 -76.80331093 36.05957481 -76.81211853 34.5372467 C-76.87140212 28.7809751 -77.18997714 23.11706621 -77.78846836 17.39075851 C-78.10792711 12.26997615 -78 7.13073737 -78 2 C-66.12 2 -54.24 2 -42 2 C-41.01 6.29 -40.02 10.58 -39 15 C-38.34 15 -37.68 15 -37 15 C-36.40832031 14.24976563 -35.81664062 13.49953125 -35.20703125 12.7265625 C-31.61814943 8.29286425 -26.87939651 5.84338933 -22 3 C-20.9275 2.360625 -19.855 1.72125 -18.75 1.0625 C-15 0 -15 0 0 0 Z " fill="#040404" transform="translate(625,170)"/>
<path d="M0 0 C13.2 0 26.4 0 40 0 C40 44.55 40 89.1 40 135 C26.8 135 13.6 135 0 135 C0 90.45 0 45.9 0 0 Z " fill="#000000" transform="translate(627,172)"/>
<path d="M0 0 C1.134375 0.020625 2.26875 0.04125 3.4375 0.0625 C19.29100028 33.58516567 19.29100028 33.58516567 24.6875 45.5625 C25.02064209 46.29952148 25.35378418 47.03654297 25.69702148 47.79589844 C28.09491865 53.15875046 30.28665965 58.59636959 32.4375 64.0625 C30.1275 64.0625 27.8175 64.0625 25.4375 64.0625 C22.7975 58.7825 20.1575 53.5025 17.4375 48.0625 C5.5575 47.7325 -6.3225 47.4025 -18.5625 47.0625 C-19.5525 50.0325 -20.5425 53.0025 -21.5625 56.0625 C-22.78371073 58.81124522 -24.15792017 61.3986417 -25.5625 64.0625 C-27.8725 64.0625 -30.1825 64.0625 -32.5625 64.0625 C-31.1088876 59.40735114 -29.26520402 55.01203483 -27.21875 50.59375 C-26.89310562 49.88399017 -26.56746124 49.17423035 -26.23194885 48.44296265 C-25.1783476 46.14813788 -24.12049738 43.85530085 -23.0625 41.5625 C-21.97431441 39.19624039 -20.88706456 36.8295522 -19.79981995 34.46286011 C-19.07758015 32.8910071 -18.35495553 31.31933086 -17.63194275 29.74783325 C-14.18247463 22.2476795 -10.77622245 14.72823826 -7.39453125 7.19726562 C-7.0284375 6.38708984 -6.66234375 5.57691406 -6.28515625 4.7421875 C-5.97328369 4.04851074 -5.66141113 3.35483398 -5.34008789 2.64013672 C-3.86465048 -0.35335671 -3.7551891 0.06588051 0 0 Z " fill="#0C0C0C" transform="translate(514.5625,336.9375)"/>
<path d="M0 0 C41.89655172 0 41.89655172 0 52.71875 10.69921875 C58.46245065 16.96379421 60.55714246 22.99531761 60.4375 31.375 C60.42920166 32.12450928 60.42090332 32.87401855 60.41235352 33.64624023 C60.10770206 43.6303514 56.12826541 50.12184917 49 57 C39.14400605 64.92764731 28.37297994 64.38003522 16.4375 64.1875 C11.013125 64.125625 5.58875 64.06375 0 64 C0 42.88 0 21.76 0 0 Z M7 6 C7 23.16 7 40.32 7 58 C28.76025677 59.40864454 28.76025677 59.40864454 46.9375 50.875 C52.29635712 44.83340387 54.77032839 37.55481239 54.37890625 29.51171875 C53.10716719 21.08153094 49.57980878 15.3062974 43 10 C30.77165594 4.3906404 30.77165594 4.3906404 7 6 Z " fill="#090909" transform="translate(184,337)"/>
<path d="M0 0 C6.37004052 5.05856159 10.41216451 12.03323377 12.1875 19.875 C13.10966806 29.89017407 12.67966279 37.93512597 6.5390625 46.0546875 C0.51705807 53.23375828 -5.26260581 58.03053035 -14.79003906 59.09619141 C-25.27331601 59.92726852 -34.07064858 59.35787146 -42.8125 52.875 C-49.8583159 46.77095157 -54.15830116 39.79686245 -55.1875 30.48046875 C-55.55707748 19.82046834 -53.43860917 12.64682364 -46.5625 4.5 C-42.67689129 0.43603548 -39.09932155 -2.24232235 -33.8125 -4.125 C-32.719375 -4.5375 -31.62625 -4.95 -30.5 -5.375 C-19.76416176 -7.55856032 -9.36654378 -5.8881405 0 0 Z M-41.625 8.75 C-47.40095755 15.52748938 -48.42012938 21.35655049 -48.22265625 30.10546875 C-47.45234215 37.18502219 -44.67089842 42.44995791 -39.5 47.3125 C-31.66422739 53.22281567 -23.486467 54.00671267 -13.8125 52.875 C-6.51357807 50.73583156 -0.89329012 46.28601402 3.1875 39.875 C6.21297099 32.61590013 6.40268871 24.03751313 4.60546875 16.40234375 C1.80472911 9.96959472 -4.22968822 4.41620954 -10.609375 1.671875 C-22.22542829 -1.2179724 -33.31943786 -0.20765173 -41.625 8.75 Z " fill="#0D0D0D" transform="translate(780.8125,342.125)"/>
<path d="M0 0 C6 0 6 0 8.53515625 2.5 C9.39600552 3.65315573 10.23729762 4.82107225 11.0625 6 C12.01896425 7.29175062 12.97737765 8.58205977 13.9375 9.87109375 C14.68386719 10.88792236 14.68386719 10.88792236 15.4453125 11.92529297 C18.04323323 15.39217901 20.80859303 18.71922289 23.5625 22.0625 C31.29340473 31.52481715 38.6680125 41.22401666 46 51 C46.33 34.17 46.66 17.34 47 0 C48.98 0 50.96 0 53 0 C53 21.12 53 42.24 53 64 C47 64 47 64 44.4296875 61.46484375 C43.55949381 60.30278386 42.70904904 59.12576867 41.875 57.9375 C40.91522903 56.6436651 39.95425003 55.35072561 38.9921875 54.05859375 C38.50073242 53.38683105 38.00927734 52.71506836 37.50292969 52.02294922 C35.09116358 48.77670264 32.54342402 45.6433816 30 42.5 C26.01900863 37.53861523 22.05886748 32.56133713 18.125 27.5625 C17.69703125 27.01980469 17.2690625 26.47710937 16.828125 25.91796875 C13.48305237 21.65871478 10.25190933 17.3358791 7 13 C6.67 29.83 6.34 46.66 6 64 C4.02 64 2.04 64 0 64 C0 42.88 0 21.76 0 0 Z " fill="#040404" transform="translate(840,337)"/>
<path d="M0 0 C0.23320282 4.04068739 0.3747013 8.07964201 0.5 12.125 C0.60054688 13.83816406 0.60054688 13.83816406 0.703125 15.5859375 C0.89568953 23.86621238 0.89568953 23.86621238 -1.62744141 27.06005859 C-3.6809239 28.64514343 -5.67591586 29.85418001 -8 31 C-8.93585938 31.48210937 -9.87171875 31.96421875 -10.8359375 32.4609375 C-18.23868808 35.12592771 -24.79413753 36.4798405 -32.375 33.8125 C-35.83736126 31.42182199 -38.12028805 28.7594239 -40 25 C-40.54360446 20.04517906 -40.56437074 16.12874148 -38.3125 11.625 C-29.61678305 1.75418617 -12.83266343 0 0 0 Z " fill="#F8F8F8" transform="translate(504,243)"/>
<path d="M0 0 C14.52 0 29.04 0 44 0 C44 1.98 44 3.96 44 6 C31.79 6 19.58 6 7 6 C7 13.59 7 21.18 7 29 C17.89 29 28.78 29 40 29 C40 30.65 40 32.3 40 34 C29.11 34 18.22 34 7 34 C7 41.92 7 49.84 7 58 C19.87 58 32.74 58 46 58 C46 59.98 46 61.96 46 64 C30.82 64 15.64 64 0 64 C0 42.88 0 21.76 0 0 Z " fill="#0B0B0B" transform="translate(91,337)"/>
<path d="M0 0 C2.31 0 4.62 0 7 0 C7.0093457 1.25546631 7.01869141 2.51093262 7.02832031 3.80444336 C7.06841784 8.49571236 7.13423078 13.18633913 7.20751953 17.87719727 C7.235615 19.90120141 7.25688595 21.92531294 7.27099609 23.94946289 C7.29258448 26.87181121 7.33931512 29.79288377 7.390625 32.71484375 C7.39185364 33.60896469 7.39308228 34.50308563 7.39434814 35.42430115 C7.53627326 41.61569363 8.79297025 46.65082075 12 52 C17.73538158 57.46226817 22.61324071 57.42409944 30.27734375 57.28125 C35.15528415 56.91271725 37.28257661 56.12601512 41 53 C44.21145663 48.71805783 45.09939644 44.77286256 45.20532227 39.50683594 C45.22526749 38.62622498 45.24521271 37.74561401 45.26576233 36.83831787 C45.28247482 35.89651672 45.29918732 34.95471558 45.31640625 33.984375 C45.33718735 33.01340881 45.35796844 32.04244263 45.37937927 31.04205322 C45.44468862 27.94477315 45.50367323 24.84740932 45.5625 21.75 C45.60570292 19.64842889 45.64931778 17.5468662 45.69335938 15.4453125 C45.80035098 10.29696052 45.9016709 5.14852442 46 0 C48.31 0 50.62 0 53 0 C53.0746515 5.94072787 53.12883772 11.8811773 53.16479492 17.82226562 C53.17979884 19.83956667 53.20020855 21.85683556 53.22631836 23.87402344 C53.26307353 26.78849263 53.27981068 29.70252726 53.29296875 32.6171875 C53.30845261 33.50614716 53.32393646 34.39510681 53.33988953 35.31100464 C53.34217716 43.9947605 51.71084372 51.71116283 45.98828125 58.4296875 C39.9520486 63.1970068 34.23782141 64.72782412 26.625 64.625 C25.79154053 64.61807129 24.95808105 64.61114258 24.09936523 64.60400391 C17.1960344 64.36012709 12.14409247 62.81150028 7 58 C0.59707219 50.776184 -0.45898364 41.13266338 -0.29296875 31.8359375 C-0.28872391 30.91785309 -0.28447906 29.99976868 -0.28010559 29.05386353 C-0.26349497 26.16059322 -0.22587775 23.2680549 -0.1875 20.375 C-0.17243032 18.39714557 -0.15874595 16.41928008 -0.14648438 14.44140625 C-0.11364953 9.62732798 -0.06199238 4.81378749 0 0 Z " fill="#0E0E0E" transform="translate(290,337)"/>
<path d="M0 0 C7.12523449 5.36508155 8.19223462 11.68980353 9.64453125 20.23828125 C9.64453125 20.89828125 9.64453125 21.55828125 9.64453125 22.23828125 C-5.20546875 22.23828125 -20.05546875 22.23828125 -35.35546875 22.23828125 C-35.35546875 14.61740708 -34.59773718 8.91240921 -29.44921875 3.078125 C-21.5571906 -4.09243043 -9.44153677 -5.78418358 0 0 Z " fill="#FCFCFC" transform="translate(332.35546875,202.76171875)"/>
<path d="M0 0 C0.6290625 0.50660156 1.258125 1.01320313 1.90625 1.53515625 C1.90625 2.52515625 1.90625 3.51515625 1.90625 4.53515625 C-0.09375 6.22265625 -0.09375 6.22265625 -2.09375 7.53515625 C-2.78210938 7.01115234 -2.78210938 7.01115234 -3.484375 6.4765625 C-4.09796875 6.02152344 -4.7115625 5.56648438 -5.34375 5.09765625 C-5.94703125 4.64519531 -6.5503125 4.19273437 -7.171875 3.7265625 C-13.18690161 -0.00226497 -22.24483487 0.72281049 -29.09375 1.53515625 C-36.48943723 3.86640548 -40.86049141 8.71682876 -44.6953125 15.2734375 C-47.52036812 21.86260355 -47.18251018 29.6791306 -45.25 36.5234375 C-42.16392769 43.39411876 -37.46272597 47.38038919 -30.796875 50.66796875 C-23.75081362 52.92841041 -14.62062225 52.6473302 -7.84375 49.66015625 C-5.46513321 48.41553118 -3.33532641 47.02954052 -1.09375 45.53515625 C0.22625 46.52515625 1.54625 47.51515625 2.90625 48.53515625 C1.75758695 51.9811454 1.15275567 52.30087935 -1.84375 54.09765625 C-2.51921875 54.51144531 -3.1946875 54.92523438 -3.890625 55.3515625 C-12.55473338 60.00621647 -23.51369548 59.98294163 -33.05859375 57.8828125 C-41.44755352 54.44761456 -48.18517584 47.6401453 -52.09375 39.53515625 C-55.22129138 31.5731407 -55.47139282 22.40922138 -52.65625 14.28515625 C-49.06111555 6.58674115 -42.98411951 -0.47075613 -35.0546875 -3.79296875 C-22.1549623 -8.21279491 -11.75929772 -6.92452622 0 0 Z " fill="#0D0D0D" transform="translate(443.09375,342.46484375)"/>
<path d="M0 0 C16.83 0 33.66 0 51 0 C51 1.98 51 3.96 51 6 C43.74 6 36.48 6 29 6 C29 25.14 29 44.28 29 64 C26.69 64 24.38 64 22 64 C22 44.86 22 25.72 22 6 C14.74 6 7.48 6 0 6 C0 4.02 0 2.04 0 0 Z " fill="#090909" transform="translate(579,337)"/>
<path d="M0 0 C2.33445349 2.33445349 3.19925787 4.39769131 4.53125 7.41796875 C5.01207031 8.50787109 5.49289062 9.59777344 5.98828125 10.72070312 C6.48714844 11.86474609 6.98601563 13.00878906 7.5 14.1875 C7.99886719 15.31220703 8.49773438 16.43691406 9.01171875 17.59570312 C11.41976199 23.08642907 13.34027394 28.1909588 15 34 C5.1 34 -4.8 34 -15 34 C-11.44768933 25.30046367 -7.87698905 16.61545921 -4.125 8 C-3.67821899 6.96842773 -3.67821899 6.96842773 -3.22241211 5.91601562 C-1.12141359 1.12141359 -1.12141359 1.12141359 0 0 Z " fill="#F8F8F8" transform="translate(514,344)"/>
<path d="M0 0 C1.98 0 3.96 0 6 0 C6 21.12 6 42.24 6 64 C4.02 64 2.04 64 0 64 C0 42.88 0 21.76 0 0 Z " fill="#000000" transform="translate(673,337)"/>
<path d="M0 0 C0.33 1.32 0.66 2.64 1 4 C0.34 4 -0.32 4 -1 4 C-1.144375 4.804375 -1.28875 5.60875 -1.4375 6.4375 C-2 9 -2 9 -3 10 C-2.835 11.11375 -2.67 12.2275 -2.5 13.375 C-2 17 -2 17 -3 20 C-3.66 20 -4.32 20 -5 20 C-5 19.01 -5 18.02 -5 17 C-8.11785113 17.64644661 -8.11785113 17.64644661 -9 20 C-9.66 19.67 -10.32 19.34 -11 19 C-7.37 12.73 -3.74 6.46 0 0 Z " fill="#A60826" transform="translate(193,130)"/>
<path d="M0 0 C0.66 0.33 1.32 0.66 2 1 C0.56861647 3.60769872 -0.86976005 6.21109447 -2.3125 8.8125 C-2.71662109 9.55048828 -3.12074219 10.28847656 -3.53710938 11.04882812 C-4.13168945 12.11713867 -4.13168945 12.11713867 -4.73828125 13.20703125 C-5.09962158 13.8616333 -5.46096191 14.51623535 -5.83325195 15.19067383 C-7.0409622 17.06352184 -8.37188437 18.48656925 -10 20 C-10.33 19.01 -10.66 18.02 -11 17 C-10.34 16.67 -9.68 16.34 -9 16 C-9 12.88742431 -9.17361624 10.89234315 -10 8 C-8.02 8 -6.04 8 -4 8 C-4 7.34 -4 6.68 -4 6 C-3.34 6 -2.68 6 -2 6 C-2 4.68 -2 3.36 -2 2 C-1.34 2 -0.68 2 0 2 C0 1.34 0 0.68 0 0 Z " fill="#A01430" transform="translate(268,170)"/>
<path d="M0 0 C1.32 0.33 2.64 0.66 4 1 C4 1.66 4 2.32 4 3 C5.32 3 6.64 3 8 3 C8 3.66 8 4.32 8 5 C8.66 5 9.32 5 10 5 C10 4.34 10 3.68 10 3 C10.66 3 11.32 3 12 3 C11.34 6.3 10.68 9.6 10 13 C5.79759989 9.28249221 3.00217321 4.68339021 0 0 Z " fill="#A60E2D" transform="translate(108,261)"/>
<path d="M0 0 C0.99 0 1.98 0 3 0 C3.66 0.99 4.32 1.98 5 3 C7.05925139 3.72382467 7.05925139 3.72382467 9 4 C8.67 5.32 8.34 6.64 8 8 C8.99 8 9.98 8 11 8 C11 8.66 11 9.32 11 10 C11.66 10.33 12.32 10.66 13 11 C12.01 11.33 11.02 11.66 10 12 C5.43303964 9.08799755 1.30958564 5.40204077 0 0 Z " fill="#A10C29" transform="translate(465,142)"/>
<path d="M0 0 C5.13271592 2.41539573 8.01744998 6.31852909 11 11 C11.33 11.99 11.66 12.98 12 14 C10.68 14 9.36 14 8 14 C8 12.68 8 11.36 8 10 C7.34 10 6.68 10 6 10 C6 8.68 6 7.36 6 6 C4.02 6 2.04 6 0 6 C0 4.02 0 2.04 0 0 Z " fill="#A11733" transform="translate(276,86)"/>
<path d="M0 0 C0.33 0 0.66 0 1 0 C1 2.31 1 4.62 1 7 C0.34 7 -0.32 7 -1 7 C-1 7.66 -1 8.32 -1 9 C-1.66 9 -2.32 9 -3 9 C-3 10.32 -3 11.64 -3 13 C-5.4375 15.625 -5.4375 15.625 -8 18 C-8.33 18.66 -8.66 19.32 -9 20 C-9.66 19.67 -10.32 19.34 -11 19 C-9.19350552 15.82987065 -7.37882665 12.66450468 -5.5625 9.5 C-4.7880957 8.14068359 -4.7880957 8.14068359 -3.99804688 6.75390625 C-3.50498047 5.89667969 -3.01191406 5.03945312 -2.50390625 4.15625 C-2.04830322 3.36025391 -1.5927002 2.56425781 -1.12329102 1.74414062 C-0.56726196 0.88079102 -0.56726196 0.88079102 0 0 Z " fill="#A11331" transform="translate(205,109)"/>
<path d="M0 0 C0.66 0.33 1.32 0.66 2 1 C2 1.66 2 2.32 2 3 C1.01 3 0.02 3 -1 3 C-1.33 3.99 -1.66 4.98 -2 6 C-4.0625 6.6875 -4.0625 6.6875 -6 7 C-6.33 8.32 -6.66 9.64 -7 11 C-8.65 11 -10.3 11 -12 11 C-10.50253294 7.11002809 -8.29577922 5.53051948 -4.875 3.25 C-3.50988281 2.32960938 -3.50988281 2.32960938 -2.1171875 1.390625 C-1.06917969 0.70226562 -1.06917969 0.70226562 0 0 Z " fill="#A1102F" transform="translate(229,81)"/>
<path d="M0 0 C1.231394 2.46278801 1.07159196 4.2795055 1 7 C0.46375 7.103125 -0.0725 7.20625 -0.625 7.3125 C-3.19828335 7.97311555 -3.19828335 7.97311555 -6.125 9.625 C-7.548125 10.305625 -7.548125 10.305625 -9 11 C-9.66 10.67 -10.32 10.34 -11 10 C-3.70159453 2.51708428 -3.70159453 2.51708428 0 0 Z " fill="#A3122E" transform="translate(86,156)"/>
<path d="M0 0 C0.33 0.99 0.66 1.98 1 3 C-0.093125 3.28875 -1.18625 3.5775 -2.3125 3.875 C-6.04013845 4.81893204 -6.04013845 4.81893204 -9 7 C-9.72965366 9.56282742 -9.72965366 9.56282742 -10 12 C-11.65 12.33 -13.3 12.66 -15 13 C-13.61613025 7.77204763 -10.24038711 5.05057385 -6 2 C-2.42524917 0 -2.42524917 0 0 0 Z " fill="#A6223D" transform="translate(480,105)"/>
<path d="M0 0 C2 1 2 1 2.6328125 2.84765625 C2.79523438 3.57855469 2.95765625 4.30945313 3.125 5.0625 C3.29257813 5.79597656 3.46015625 6.52945312 3.6328125 7.28515625 C3.75398438 7.85105469 3.87515625 8.41695313 4 9 C3.01 9 2.02 9 1 9 C-0.38671875 7.46875 -0.38671875 7.46875 -1.6875 5.5 C-2.12449219 4.8503125 -2.56148438 4.200625 -3.01171875 3.53125 C-3.50091797 2.77328125 -3.50091797 2.77328125 -4 2 C-2.125 0.9375 -2.125 0.9375 0 0 Z " fill="#AA1230" transform="translate(124,275)"/>
<path d="M0 0 C0.33 1.32 0.66 2.64 1 4 C0.34 4 -0.32 4 -1 4 C-1.144375 4.763125 -1.28875 5.52625 -1.4375 6.3125 C-2 9 -2 9 -3 12 C-3.66 12 -4.32 12 -5 12 C-5 12.66 -5 13.32 -5 14 C-5.99 14.33 -6.98 14.66 -8 15 C-6.62712658 11.30123909 -4.93644547 8.0485524 -2.875 4.6875 C-2.33617187 3.80449219 -1.79734375 2.92148438 -1.2421875 2.01171875 C-0.83226562 1.34785156 -0.42234375 0.68398437 0 0 Z " fill="#A01633" transform="translate(193,130)"/>
<path d="M0 0 C0.66 0 1.32 0 2 0 C0.44499019 3.81684226 -2.03595495 6.19195732 -5 9 C-6.03348696 5.89953913 -6.17755913 4.94389782 -5 2 C-4.01 1.67 -3.02 1.34 -2 1 C-1.34 1.33 -0.68 1.66 0 2 C0 1.34 0 0.68 0 0 Z " fill="#A61332" transform="translate(198,288)"/>
<path d="M0 0 C1.32 0 2.64 0 4 0 C3.34 1.32 2.68 2.64 2 4 C1.34 4 0.68 4 0 4 C0 4.66 0 5.32 0 6 C0.99 6.33 1.98 6.66 3 7 C2.01 7.495 2.01 7.495 1 8 C-0.65 6.68 -2.3 5.36 -4 4 C-3.34 4 -2.68 4 -2 4 C-2 3.34 -2 2.68 -2 2 C-1.34 2 -0.68 2 0 2 C0 1.34 0 0.68 0 0 Z " fill="#F5EDEF" transform="translate(132,150)"/>
<path d="M0 0 C0.33 0 0.66 0 1 0 C1 5.28 1 10.56 1 16 C0.01 16 -0.98 16 -2 16 C-1.34 10.72 -0.68 5.44 0 0 Z " fill="#E1E1E1" transform="translate(382,264)"/>
<path d="M0 0 C0.33 0.99 0.66 1.98 1 3 C1.66 3 2.32 3 3 3 C3 4.32 3 5.64 3 7 C2.34 7 1.68 7 1 7 C1 9.97 1 12.94 1 16 C0.67 16 0.34 16 0 16 C0 10.72 0 5.44 0 0 Z " fill="#943144" transform="translate(67,183)"/>
<path d="M0 0 C0.66 0.33 1.32 0.66 2 1 C1.19185349 2.33597652 0.37836819 3.668725 -0.4375 5 C-0.88996094 5.7425 -1.34242188 6.485 -1.80859375 7.25 C-2.20175781 7.8275 -2.59492188 8.405 -3 9 C-3.33 9 -3.66 9 -4 9 C-4 6.69 -4 4.38 -4 2 C-2.68 2 -1.36 2 0 2 C0 1.34 0 0.68 0 0 Z " fill="#9D172F" transform="translate(240,218)"/>
<path d="M0 0 C2.97 1.65 5.94 3.3 9 5 C7.68 5.33 6.36 5.66 5 6 C5 5.34 5 4.68 5 4 C4.34 4 3.68 4 3 4 C3 4.66 3 5.32 3 6 C2.34 6 1.68 6 1 6 C0.67 4.02 0.34 2.04 0 0 Z " fill="#A01330" transform="translate(267,80)"/>
<path d="M0 0 C0.66 0 1.32 0 2 0 C2 0.66 2 1.32 2 2 C2.66 2 3.32 2 4 2 C2.92598892 4.91517292 2.22189824 6.77810176 0 9 C-1.125 3.375 -1.125 3.375 0 0 Z " fill="#A2122C" transform="translate(214,256)"/>
<path d="M0 0 C1.32 0.33 2.64 0.66 4 1 C4 1.33 4 1.66 4 2 C4.66 2 5.32 2 6 2 C6 2.66 6 3.32 6 4 C6.66 4.33 7.32 4.66 8 5 C7.01 5.33 6.02 5.66 5 6 C2.3125 4.1875 2.3125 4.1875 0 2 C0 1.34 0 0.68 0 0 Z " fill="#A71737" transform="translate(470,148)"/>
<path d="M0 0 C0.66 0.33 1.32 0.66 2 1 C-0.475 5.455 -0.475 5.455 -3 10 C-3.33 10 -3.66 10 -4 10 C-4.41176754 6.39703406 -4.1535853 5.21597933 -2 2.1875 C-1.34 1.465625 -0.68 0.74375 0 0 Z " fill="#A11533" transform="translate(208,272)"/>
<path d="M0 0 C1.32 0 2.64 0 4 0 C4 1.32 4 2.64 4 4 C4.66 4 5.32 4 6 4 C5.67 4.99 5.34 5.98 5 7 C2.47411298 4.63707344 1.11179163 3.33537489 0 0 Z " fill="#A01232" transform="translate(102,252)"/>
<path d="M0 0 C0.66 0.33 1.32 0.66 2 1 C-0.475 5.455 -0.475 5.455 -3 10 C-3.33 8.68 -3.66 7.36 -4 6 C-3.34 6 -2.68 6 -2 6 C-1.855625 5.195625 -1.71125 4.39125 -1.5625 3.5625 C-1 1 -1 1 0 0 Z " fill="#9C1734" transform="translate(222,248)"/>
<path d="M0 0 C0.99 0.33 1.98 0.66 3 1 C1.92598892 3.91517292 1.22189824 5.77810176 -1 8 C-1.04241723 5.66705225 -1.04092937 3.33297433 -1 1 C-0.67 0.67 -0.34 0.34 0 0 Z " fill="#A81434" transform="translate(251,196)"/>
<path d="M0 0 C1.32 0 2.64 0 4 0 C4 1.32 4 2.64 4 4 C4.66 4 5.32 4 6 4 C6 5.65 6 7.3 6 9 C3.75972706 6.11964908 1.83827868 3.15133488 0 0 Z " fill="#F5E1E4" transform="translate(908,112)"/>
<path d="M0 0 C1.32 0.33 2.64 0.66 4 1 C1.36 2.98 -1.28 4.96 -4 7 C-4 6.01 -4 5.02 -4 4 C-3.34 4 -2.68 4 -2 4 C-2 3.34 -2 2.68 -2 2 C-1.34 2 -0.68 2 0 2 C0 1.34 0 0.68 0 0 Z " fill="#FBE4E9" transform="translate(80,158)"/>
<path d="M0 0 C0.66 0 1.32 0 2 0 C0.7508258 3.45925163 -0.67527795 6.14693203 -3 9 C-3 7.35 -3 5.7 -3 4 C-2.34 4 -1.68 4 -1 4 C-0.67 2.68 -0.34 1.36 0 0 Z " fill="#A11937" transform="translate(283,144)"/>
<path d="M0 0 C0.99 0.99 1.98 1.98 3 3 C2.67 3.66 2.34 4.32 2 5 C0.35 5 -1.3 5 -3 5 C-1.125 1.125 -1.125 1.125 0 0 Z " fill="#AE1939" transform="translate(220,87)"/>
<path d="M0 0 C0.66 0.33 1.32 0.66 2 1 C1.67 1.99 1.34 2.98 1 4 C-0.98 4 -2.96 4 -5 4 C-3 1 -3 1 0 0 Z " fill="#F8E3E6" transform="translate(179,304)"/>
<path d="M0 0 C0.66 0 1.32 0 2 0 C2 0.66 2 1.32 2 2 C2.99 2 3.98 2 5 2 C5.33 3.98 5.66 5.96 6 8 C1.125 3.375 1.125 3.375 0 0 Z " fill="#9D112F" transform="translate(96,244)"/>
<path d="M0 0 C0.66 0.33 1.32 0.66 2 1 C1.67 2.32 1.34 3.64 1 5 C0.34 5 -0.32 5 -1 5 C-1 4.34 -1 3.68 -1 3 C-2.65 3 -4.3 3 -6 3 C-3 1 -3 1 0 0 Z " fill="#AB2441" transform="translate(239,77)"/>
</svg>
